# Blender v2.78 (sub 0) OBJ File: 'pointer.blend'
# www.blender.org
mtllib pointer.mtl
o Cylinder
v 0.000000 2.287594 0.300000
v 0.000000 -0.712406 0.300000
v 0.058527 2.287594 0.294236
v 0.058527 -0.712406 0.294235
v 0.114805 2.287594 0.277164
v 0.114805 -0.712406 0.277164
v 0.166671 2.287594 0.249441
v 0.166671 -0.712406 0.249441
v 0.212132 2.287594 0.212132
v 0.212132 -0.712406 0.212132
v 0.249441 2.287594 0.166671
v 0.249441 -0.712406 0.166671
v 0.277164 2.287594 0.114805
v 0.277164 -0.712406 0.114805
v 0.294236 2.287594 0.058527
v 0.294236 -0.712406 0.058527
v 0.300000 2.287594 0.000000
v 0.300000 -0.712406 -0.000000
v 0.294236 2.287594 -0.058527
v 0.294236 -0.712406 -0.058527
v 0.277164 2.287594 -0.114805
v 0.277164 -0.712406 -0.114805
v 0.249441 2.287594 -0.166671
v 0.249441 -0.712406 -0.166671
v 0.212132 2.287594 -0.212132
v 0.212132 -0.712406 -0.212132
v 0.166671 2.287594 -0.249441
v 0.166671 -0.712406 -0.249441
v 0.114805 2.287594 -0.277164
v 0.114805 -0.712406 -0.277164
v 0.058527 2.287594 -0.294235
v 0.058527 -0.712406 -0.294236
v -0.000000 2.287594 -0.300000
v -0.000000 -0.712406 -0.300000
v -0.058527 2.287594 -0.294235
v -0.058527 -0.712406 -0.294236
v -0.114805 2.287594 -0.277164
v -0.114805 -0.712406 -0.277164
v -0.166671 2.287594 -0.249441
v -0.166671 -0.712406 -0.249441
v -0.212132 2.287594 -0.212132
v -0.212132 -0.712406 -0.212132
v -0.249441 2.287594 -0.166671
v -0.249441 -0.712406 -0.166671
v -0.277164 2.287594 -0.114805
v -0.277164 -0.712406 -0.114805
v -0.294236 2.287594 -0.058527
v -0.294236 -0.712406 -0.058527
v -0.300000 2.287594 0.000000
v -0.300000 -0.712406 0.000000
v -0.294236 2.287594 0.058528
v -0.294236 -0.712406 0.058527
v -0.277164 2.287594 0.114805
v -0.277164 -0.712406 0.114805
v -0.249441 2.287594 0.166672
v -0.249441 -0.712406 0.166671
v -0.212132 2.287594 0.212132
v -0.212132 -0.712406 0.212132
v -0.166671 2.287594 0.249441
v -0.166671 -0.712406 0.249441
v -0.114805 2.287594 0.277164
v -0.114805 -0.712406 0.277164
v -0.058527 2.287594 0.294236
v -0.058527 -0.712406 0.294236
v 0.000000 -0.711429 1.000000
v 0.195090 -0.711429 0.980785
v 0.382683 -0.711429 0.923879
v 0.555570 -0.711429 0.831469
v 0.707107 -0.711429 0.707107
v 0.831470 -0.711429 0.555570
v 0.923880 -0.711429 0.382683
v 0.980785 -0.711429 0.195090
v 1.000000 -0.711429 -0.000000
v 0.000000 -2.711429 -0.000000
v 0.980785 -0.711429 -0.195090
v 0.923880 -0.711429 -0.382683
v 0.831470 -0.711429 -0.555570
v 0.707107 -0.711429 -0.707107
v 0.555570 -0.711429 -0.831470
v 0.382683 -0.711429 -0.923880
v 0.195090 -0.711429 -0.980785
v -0.000000 -0.711429 -1.000000
v -0.195091 -0.711429 -0.980785
v -0.382684 -0.711429 -0.923879
v -0.555571 -0.711429 -0.831469
v -0.707107 -0.711429 -0.707106
v -0.831470 -0.711429 -0.555570
v -0.923880 -0.711429 -0.382683
v -0.980785 -0.711429 -0.195090
v -1.000000 -0.711429 0.000001
v -0.980785 -0.711429 0.195091
v -0.923879 -0.711429 0.382684
v -0.831469 -0.711429 0.555571
v -0.707106 -0.711429 0.707108
v -0.555569 -0.711429 0.831470
v -0.382682 -0.711429 0.923880
v -0.195089 -0.711429 0.980785
vn 0.0980 -0.0000 0.9952
vn 0.2903 -0.0000 0.9569
vn 0.4714 -0.0000 0.8819
vn 0.6344 -0.0000 0.7730
vn 0.7730 -0.0000 0.6344
vn 0.8819 -0.0000 0.4714
vn 0.9569 -0.0000 0.2903
vn 0.9952 -0.0000 0.0980
vn 0.9952 0.0000 -0.0980
vn 0.9569 0.0000 -0.2903
vn 0.8819 0.0000 -0.4714
vn 0.7730 0.0000 -0.6344
vn 0.6344 0.0000 -0.7730
vn 0.4714 0.0000 -0.8819
vn 0.2903 0.0000 -0.9569
vn 0.0980 0.0000 -0.9952
vn -0.0980 0.0000 -0.9952
vn -0.2903 0.0000 -0.9569
vn -0.4714 0.0000 -0.8819
vn -0.6344 0.0000 -0.7730
vn -0.7730 0.0000 -0.6344
vn -0.8819 0.0000 -0.4714
vn -0.9569 0.0000 -0.2903
vn -0.9952 0.0000 -0.0980
vn -0.9952 -0.0000 0.0980
vn -0.9569 -0.0000 0.2903
vn -0.8819 -0.0000 0.4714
vn -0.7730 -0.0000 0.6344
vn -0.6344 -0.0000 0.7730
vn -0.4714 -0.0000 0.8819
vn 0.0000 -1.0000 0.0000
vn -0.2903 -0.0000 0.9569
vn -0.0980 -0.0000 0.9952
vn 0.0000 1.0000 -0.0000
vn 0.0878 -0.4455 0.8910
vn 0.2599 -0.4455 0.8567
vn 0.4220 -0.4455 0.7896
vn 0.5680 -0.4455 0.6921
vn 0.6921 -0.4455 0.5680
vn 0.7896 -0.4455 0.4220
vn 0.8567 -0.4455 0.2599
vn 0.8910 -0.4455 0.0878
vn 0.8910 -0.4455 -0.0878
vn 0.8567 -0.4455 -0.2599
vn 0.7896 -0.4455 -0.4220
vn 0.6921 -0.4455 -0.5680
vn 0.5680 -0.4455 -0.6921
vn 0.4220 -0.4455 -0.7896
vn 0.2599 -0.4455 -0.8567
vn 0.0878 -0.4455 -0.8910
vn -0.0878 -0.4455 -0.8910
vn -0.2599 -0.4455 -0.8567
vn -0.4220 -0.4455 -0.7896
vn -0.5680 -0.4455 -0.6921
vn -0.6921 -0.4455 -0.5680
vn -0.7896 -0.4455 -0.4220
vn -0.8567 -0.4455 -0.2599
vn -0.8910 -0.4455 -0.0878
vn -0.8910 -0.4455 0.0878
vn -0.8567 -0.4455 0.2599
vn -0.7896 -0.4455 0.4220
vn -0.6921 -0.4455 0.5680
vn -0.5680 -0.4455 0.6921
vn -0.4220 -0.4455 0.7896
vn -0.2599 -0.4455 0.8567
vn -0.0878 -0.4455 0.8910
usemtl Blue
s off
f 1//1 2//1 4//1 3//1
f 3//2 4//2 6//2 5//2
f 5//3 6//3 8//3 7//3
f 7//4 8//4 10//4 9//4
f 9//5 10//5 12//5 11//5
f 11//6 12//6 14//6 13//6
f 13//7 14//7 16//7 15//7
f 15//8 16//8 18//8 17//8
f 17//9 18//9 20//9 19//9
f 19//10 20//10 22//10 21//10
f 21//11 22//11 24//11 23//11
f 23//12 24//12 26//12 25//12
f 25//13 26//13 28//13 27//13
f 27//14 28//14 30//14 29//14
f 29//15 30//15 32//15 31//15
f 31//16 32//16 34//16 33//16
f 33//17 34//17 36//17 35//17
f 35//18 36//18 38//18 37//18
f 37//19 38//19 40//19 39//19
f 39//20 40//20 42//20 41//20
f 41//21 42//21 44//21 43//21
f 43//22 44//22 46//22 45//22
f 45//23 46//23 48//23 47//23
f 47//24 48//24 50//24 49//24
f 49//25 50//25 52//25 51//25
f 51//26 52//26 54//26 53//26
f 53//27 54//27 56//27 55//27
f 55//28 56//28 58//28 57//28
f 57//29 58//29 60//29 59//29
f 59//30 60//30 62//30 61//30
f 4//31 2//31 64//31 62//31 60//31 58//31 56//31 54//31 52//31 50//31 48//31 46//31 44//31 42//31 40//31 38//31 36//31 34//31 32//31 30//31 28//31 26//31 24//31 22//31 20//31 18//31 16//31 14//31 12//31 10//31 8//31 6//31
f 61//32 62//32 64//32 63//32
f 63//33 64//33 2//33 1//33
f 1//34 3//34 5//34 7//34 9//34 11//34 13//34 15//34 17//34 19//34 21//34 23//34 25//34 27//34 29//34 31//34 33//34 35//34 37//34 39//34 41//34 43//34 45//34 47//34 49//34 51//34 53//34 55//34 57//34 59//34 61//34 63//34
f 65//35 74//35 66//35
f 66//36 74//36 67//36
f 67//37 74//37 68//37
f 68//38 74//38 69//38
f 69//39 74//39 70//39
f 70//40 74//40 71//40
f 71//41 74//41 72//41
f 72//42 74//42 73//42
f 73//43 74//43 75//43
f 75//44 74//44 76//44
f 76//45 74//45 77//45
f 77//46 74//46 78//46
f 78//47 74//47 79//47
f 79//48 74//48 80//48
f 80//49 74//49 81//49
f 81//50 74//50 82//50
f 82//51 74//51 83//51
f 83//52 74//52 84//52
f 84//53 74//53 85//53
f 85//54 74//54 86//54
f 86//55 74//55 87//55
f 87//56 74//56 88//56
f 88//57 74//57 89//57
f 89//58 74//58 90//58
f 90//59 74//59 91//59
f 91//60 74//60 92//60
f 92//61 74//61 93//61
f 93//62 74//62 94//62
f 94//63 74//63 95//63
f 95//64 74//64 96//64
f 96//65 74//65 97//65
f 97//66 74//66 65//66
f 65//34 66//34 67//34 68//34 69//34 70//34 71//34 72//34 73//34 75//34 76//34 77//34 78//34 79//34 80//34 81//34 82//34 83//34 84//34 85//34 86//34 87//34 88//34 89//34 90//34 91//34 92//34 93//34 94//34 95//34 96//34 97//34
